<?xml version="1.0" encoding="UTF-8"?>
<svg id="Colored_Lockup" data-name="Colored Lockup" xmlns="http://www.w3.org/2000/svg" xmlns:xlink="http://www.w3.org/1999/xlink" viewBox="0 0 1068.22 336">
  <defs>
    <style>
      .cls-1 {
        fill: url(#linear-gradient-2);
      }

      .cls-2 {
        fill: url(#linear-gradient-4);
      }

      .cls-3 {
        fill: url(#radial-gradient);
      }

      .cls-4 {
        fill: url(#linear-gradient-3);
      }

      .cls-5 {
        fill: url(#linear-gradient-5);
      }

      .cls-6 {
        fill: url(#radial-gradient-2);
      }

      .cls-7 {
        fill: url(#linear-gradient);
      }
    </style>
    <radialGradient id="radial-gradient" cx="544.89" cy="119.24" fx="544.89" fy="119.24" r="406.3" gradientTransform="translate(-.17 90.45) rotate(-.32) scale(1 .27)" gradientUnits="userSpaceOnUse">
      <stop offset="0" stop-color="#7ac475"/>
      <stop offset="1" stop-color="#13ba78"/>
    </radialGradient>
    <linearGradient id="linear-gradient" x1="671.4" y1="136.98" x2="671.4" y2="248.38" gradientUnits="userSpaceOnUse">
      <stop offset="0" stop-color="#37697a" stop-opacity="0"/>
      <stop offset=".55" stop-color="#37697a" stop-opacity=".57"/>
      <stop offset="1" stop-color="#376a7a"/>
    </linearGradient>
    <linearGradient id="linear-gradient-2" x1="110.41" y1="-12.84" x2="241.51" y2="268.09" gradientUnits="userSpaceOnUse">
      <stop offset="0" stop-color="#56267c"/>
      <stop offset=".22" stop-color="#f41985"/>
      <stop offset=".42" stop-color="#f384a8"/>
      <stop offset=".66" stop-color="#f41985"/>
      <stop offset="1" stop-color="#56267c"/>
    </linearGradient>
    <radialGradient id="radial-gradient-2" cx="166.42" cy="114.73" fx="166.42" fy="114.73" r="363.93" gradientUnits="userSpaceOnUse">
      <stop offset="0" stop-color="#7ac475"/>
      <stop offset=".16" stop-color="#13ba78"/>
      <stop offset="1" stop-color="#56267c"/>
    </radialGradient>
    <linearGradient id="linear-gradient-3" x1="134.78" y1="210.13" x2="58.73" y2="211.77" gradientUnits="userSpaceOnUse">
      <stop offset="0" stop-color="#f88f0f"/>
      <stop offset="1" stop-color="#f9d509"/>
    </linearGradient>
    <linearGradient id="linear-gradient-4" x1="32.63" y1="48.86" x2="98.89" y2="97.68" gradientUnits="userSpaceOnUse">
      <stop offset="0" stop-color="#e81a84"/>
      <stop offset="1" stop-color="#56267c"/>
    </linearGradient>
    <linearGradient id="linear-gradient-5" x1="103.16" y1="174.46" x2="133.73" y2="239.97" xlink:href="#linear-gradient-4"/>
  </defs>
  <g id="Wordmark">
    <path class="cls-3" d="M413.98,110.03v79.75h2.51c7.36,0,11.13,3.6,11.13,10.65s-3.76,10.97-10.97,10.97h-13.32c-7.21,0-10.81-3.6-10.81-10.97v-107.65c1.15.14,1.2.06,3.49.06,11.07,0,17.97,4.2,17.97,17.18ZM319.02,149.34h-21.47v77.22c0,10.63,6.32,16.65,17.79,16.65,4,0,1.65,0,3.67,0v-93.87ZM342.22,127.95h-12.78v21.47h14.03c6.58,0,9.88,3.44,9.88,10.18v20c0,6.74-3.29,10.18-9.88,10.18h-14.03v21.47h12.78c21.93,0,32.9-9.88,32.9-29.93v-23.43c0-20.06-10.96-29.93-32.9-29.93ZM667.13,128.36c7.05,0,10.65,3.45,10.65,10.34,0,7.52-3.76,11.28-10.81,11.28h-14.42c-2.51,0-3.76,1.25-3.76,3.92v43.75c0,5.24-5.69,13.6-15.79,13.6h-5.67v-57.35c0-17.08,8.3-25.54,25.23-25.54h14.57ZM1029.17,92.86c-7.21,0-4.14,0-5.7,0v35.57h-23.19c-21.78,0-32.59,10.03-32.59,30.24v34.79c0,11.91,5.95,17.86,18.18,17.86h27.24v-21.62h-23.95v-29.3c0-6.89,3.29-10.34,9.87-10.34h24.44v39.64h21.78v-82.03c0-8.53-7.58-14.81-16.08-14.81ZM733.73,128.35h-17.71c-19.91,0-29.78,10.03-29.78,30.25v23.97c0,19.12,9.87,28.67,29.78,28.67h17.71c19.9,0,30.08-9.55,30.08-28.67v-23.97c0-20.22-10.18-30.25-30.08-30.25ZM742.03,184.14c0,3.6-2.35,5.48-6.58,5.48h-21.15c-4.24,0-6.59-1.88-6.59-5.48v-27.27c0-4.54,2.35-6.89,6.59-6.89h21.15c4.23,0,6.58,2.35,6.58,6.89v27.27ZM856.26,207.17c0,2.35-1.88,4.07-4.23,4.07h-45.76c-16.77,0-25.07-8.46-25.07-25.38v-46.69c0-7.21,3.6-10.81,10.66-10.81s10.97,3.6,10.97,10.81v45.13c0,3.6,1.72,5.33,5.01,5.33h26.48v-45.92c0-8.03,5.89-15.36,15.37-15.36,7.37,0,2.97,0,6.57,0v78.82ZM895.28,196.88c0,7.36-5.93,14.37-16.41,14.37-7.05,0-3.49,0-5.06,0v-78.97c0-2.19,1.72-3.92,3.92-3.92h47.32c16.92,0,25.23,8.46,25.23,25.54v46.38c0,7.36-3.6,10.97-10.81,10.97s-10.97-3.6-10.97-10.97v-44.66c0-3.76-1.57-5.64-4.7-5.64h-28.52v46.9ZM587.45,149.34v39.34h-34.32v-28.2c0-7.05,3.44-11.14,10.49-11.14h13.53v-20.99h-13.36c-21.47,0-32.13,10.19-32.13,30.71v31.18c0,11.61,6.74,18.03,18.34,18.03h37.45v34.94h5.64c9.88,0,16.13-6.74,16.13-15.98v-77.89h-21.77ZM549.84,221.75c-7.05,0-10.66,3.45-10.66,10.5s3.6,10.97,10.66,10.97h27.31v-21.47h-27.31ZM522.22,132.09l-39.92,98.75c-3.13,7.84-8.3,12.38-14.89,12.38h-11.75c-6.27,0-10.5-5.01-10.5-11.13,0-7.05,4.39-10.66,13.01-10.66h4.54l2.64-6.88c-.7-2.62-2.95-7.38-4.05-10.04l-25.07-61.27c-.47-1.57-.78-2.82-.78-4.07,0-6.27,4.07-10.81,11.75-10.81,4.23,0,7.84,2.66,9.72,6.89l20.37,50.62,18.72-48.38c2.22-6,9.5-11.48,18.31-8.34,2.36.84,6.06,2.14,7.91,2.94Z"/>
    <path class="cls-7" d="M413.98,110.03v79.75h2.51c7.36,0,11.13,3.6,11.13,10.65s-3.76,10.97-10.97,10.97h-13.32c-7.21,0-10.81-3.6-10.81-10.97v-107.65c1.15.14,1.2.06,3.49.06,11.07,0,17.97,4.2,17.97,17.18ZM319.02,149.34h-21.47v77.22c0,10.63,6.32,16.65,17.79,16.65,4,0,1.65,0,3.67,0v-93.87ZM342.22,127.95h-12.78v21.47h14.03c6.58,0,9.88,3.44,9.88,10.18v20c0,6.74-3.29,10.18-9.88,10.18h-14.03v21.47h12.78c21.93,0,32.9-9.88,32.9-29.93v-23.43c0-20.06-10.96-29.93-32.9-29.93ZM667.13,128.36c7.05,0,10.65,3.45,10.65,10.34,0,7.52-3.76,11.28-10.81,11.28h-14.42c-2.51,0-3.76,1.25-3.76,3.92v43.75c0,5.24-5.69,13.6-15.79,13.6h-5.67v-57.35c0-17.08,8.3-25.54,25.23-25.54h14.57ZM1029.17,92.86c-7.21,0-4.14,0-5.7,0v35.57h-23.19c-21.78,0-32.59,10.03-32.59,30.24v34.79c0,11.91,5.95,17.86,18.18,17.86h27.24v-21.62h-23.95v-29.3c0-6.89,3.29-10.34,9.87-10.34h24.44v39.64h21.78v-82.03c0-8.53-7.58-14.81-16.08-14.81ZM733.73,128.35h-17.71c-19.91,0-29.78,10.03-29.78,30.25v23.97c0,19.12,9.87,28.67,29.78,28.67h17.71c19.9,0,30.08-9.55,30.08-28.67v-23.97c0-20.22-10.18-30.25-30.08-30.25ZM742.03,184.14c0,3.6-2.35,5.48-6.58,5.48h-21.15c-4.24,0-6.59-1.88-6.59-5.48v-27.27c0-4.54,2.35-6.89,6.59-6.89h21.15c4.23,0,6.58,2.35,6.58,6.89v27.27ZM856.26,207.17c0,2.35-1.88,4.07-4.23,4.07h-45.76c-16.77,0-25.07-8.46-25.07-25.38v-46.69c0-7.21,3.6-10.81,10.66-10.81s10.97,3.6,10.97,10.81v45.13c0,3.6,1.72,5.33,5.01,5.33h26.48v-45.92c0-8.03,5.89-15.36,15.37-15.36,7.37,0,2.97,0,6.57,0v78.82ZM895.28,196.88c0,7.36-5.93,14.37-16.41,14.37-7.05,0-3.49,0-5.06,0v-78.97c0-2.19,1.72-3.92,3.92-3.92h47.32c16.92,0,25.23,8.46,25.23,25.54v46.38c0,7.36-3.6,10.97-10.81,10.97s-10.97-3.6-10.97-10.97v-44.66c0-3.76-1.57-5.64-4.7-5.64h-28.52v46.9ZM587.45,149.34v39.34h-34.32v-28.2c0-7.05,3.44-11.14,10.49-11.14h13.53v-20.99h-13.36c-21.47,0-32.13,10.19-32.13,30.71v31.18c0,11.61,6.74,18.03,18.34,18.03h37.45v34.94h5.64c9.88,0,16.13-6.74,16.13-15.98v-77.89h-21.77ZM549.84,221.75c-7.05,0-10.66,3.45-10.66,10.5s3.6,10.97,10.66,10.97h27.31v-21.47h-27.31ZM522.22,132.09l-39.92,98.75c-3.13,7.84-8.3,12.38-14.89,12.38h-11.75c-6.27,0-10.5-5.01-10.5-11.13,0-7.05,4.39-10.66,13.01-10.66h4.54l2.64-6.88c-.7-2.62-2.95-7.38-4.05-10.04l-25.07-61.27c-.47-1.57-.78-2.82-.78-4.07,0-6.27,4.07-10.81,11.75-10.81,4.23,0,7.84,2.66,9.72,6.89l20.37,50.62,18.72-48.38c2.22-6,9.5-11.48,18.31-8.34,2.36.84,6.06,2.14,7.91,2.94Z"/>
  </g>
  <g id="Icon">
    <path class="cls-1" d="M222.23,144.78v57.28c0,12.24-1.36,22.17-4.09,29.84-2.73,7.66-6.82,13.05-12.28,16.16l-.03.02s-.09.05-.13.08l-24.11,13.17c3.71-8.96,5.51-20.53,5.51-35.07v-57.28c0-30.57-3.44-50.31-11.5-66-7.74-15.06-20.04-26.78-41.15-39.19l-.13-.08-49.97-27.16,35.08-19.19,54.48,29.61c36.23,21.3,48.32,41.07,48.32,97.8Z"/>
    <path class="cls-6" d="M65.88,318.63c-4.05-2.2.64.35-7.34-3.99-22.93-12.46-35.56-36.06-35.56-62.03V75.44l42.91,23.32v219.87ZM129.67,71.18l-54.48-29.61v52.48l39.55,21.5c13.16,7.15,19.74,17.51,19.74,33.98v48.89c0,16.47-6.58,21.31-19.74,14.15l-39.55-21.5v52.48l37.05,20.14c43.84,23.83,65.75,11.59,65.75-37.43v-57.27c0-56.73-12.09-76.5-48.32-97.8Z"/>
    <path class="cls-4" d="M119.43,130.23v26.71l-43.98,24.2v-76.96l34.78,18.9c3.86,2.09,6.9,4.43,9.2,7.15ZM75.45,253.68v64.95l43.98-23.84v-17.79c-3.73-1.63-7.63-3.56-11.7-5.77l-32.28-17.55Z"/>
    <polygon class="cls-2" points="66.17 51.9 66.17 88.94 32.35 70.33 66.17 51.9"/>
    <path class="cls-5" d="M125.37,170.14v28.28c0,3.35-.31,5.55-.65,6.95-.23.96-1.31,1.51-2.28,1.15-.82-.31-1.88-.78-3.19-1.49l-34.9-18.97,35.08-19.19,5.94,3.27Z"/>
  </g>
</svg>